<svg width="48" height="48" viewBox="0 0 48 48" fill="none" xmlns="http://www.w3.org/2000/svg">
<g clip-path="url(#clip0_4_104)">
<path fill-rule="evenodd" clip-rule="evenodd" d="M24 0C10.746 0 0 10.746 0 24C0 37.254 10.746 48 24 48C37.254 48 48 37.254 48 24C48 10.746 37.254 0 24 0ZM17.5481 20.398L10.2681 24L17.5481 27.592V32L5.54805 26.13V21.868L17.5481 16V20.398ZM43.1065 26.13L31.1065 32V27.592L38.3865 24L31.1065 20.398V16L43.1065 21.87V26.13ZM27.5 7.5C28 6.5 28.5 6.5 29.5 7.5L26 34.0987C24.6279 32.8056 21.9455 33.039 21.9455 33.039L27.5 7.5ZM26 40.5C23.5 43.956 17.5481 42 17.5481 42C17.5481 42 20.0264 42.2369 19 39.5C17.6675 35.9468 21.5 33.0978 24 34.0987C26.5 35.0996 27.8084 38 26 40.5Z" fill="#515151"/>
</g>
<defs>
<clipPath id="clip0_4_104">
<rect width="48" height="48" fill="white"/>
</clipPath>
</defs>
</svg>
