<svg width="200" height="200" viewBox="0 0 200 200" fill="none" xmlns="http://www.w3.org/2000/svg">
<rect width="200" height="200" rx="32" fill="#F2F2F2"/>
<path d="M124.27 170.057C120.705 170.057 118.328 167.68 118.328 164.115V140.939C118.922 136.185 117.139 132.619 114.168 129.648C112.385 127.865 111.791 125.488 112.979 123.705C113.574 121.328 115.951 120.14 117.733 119.545C134.967 117.763 151.012 111.82 151.012 83.89C151.012 77.3531 148.635 70.8163 143.881 65.468C142.098 63.6852 142.098 61.3082 142.692 59.5254C144.475 54.7713 144.475 50.0173 143.287 45.2632C140.315 45.8575 135.561 47.6402 127.836 52.9886C126.647 54.1771 124.865 54.1771 123.082 53.5828C110.602 50.0173 96.9344 50.0173 84.455 53.5828C82.6722 54.1771 80.8895 54.1771 79.1067 52.9886C71.9756 47.6402 66.6273 45.8575 63.656 45.2632C62.4675 50.0173 62.4675 54.7713 64.2502 59.5254C64.8445 61.9024 64.8445 64.2795 63.0617 65.468C58.3077 70.8163 55.9306 77.3531 55.9306 83.89C55.9306 111.82 71.9756 117.763 89.2091 119.545C91.5861 119.545 93.3689 121.328 93.9631 123.705C94.5574 126.082 93.9631 128.459 92.7746 129.648C89.8033 132.619 88.6148 136.185 88.6148 140.344V163.521C88.6148 167.086 86.2378 169.463 82.6722 169.463C79.1067 169.463 76.7297 167.086 76.7297 163.521V153.418C58.9019 156.389 51.1766 146.287 45.8282 139.75C43.4512 136.779 41.6684 134.402 39.2914 133.808C36.3201 133.213 33.9431 129.648 35.1316 126.677C35.7258 123.705 39.2914 121.328 42.2627 122.517C48.2053 124.3 51.7708 128.459 55.3364 132.619C60.0904 139.156 64.2502 143.91 76.7297 141.533V140.939C76.7297 137.373 77.3239 133.213 78.5124 130.242C61.8732 126.677 44.0455 115.98 44.0455 84.4842C44.0455 75.5704 47.0167 67.2508 52.3651 60.7139C49.988 52.3943 50.5823 44.669 54.1478 36.9436C54.7421 35.1608 55.9306 33.9723 57.7134 33.378C60.0904 32.7838 67.8158 31.5953 83.8608 41.6977C96.9344 38.7264 110.602 38.7264 123.082 41.6977C138.532 31.5953 146.852 32.7838 149.229 33.378C151.012 33.9723 152.2 35.1608 152.795 36.9436C155.766 44.669 156.36 52.3943 154.577 60.1197C159.926 66.6565 162.897 74.9761 162.897 83.89C162.897 117.763 142.692 126.677 128.43 130.242C129.619 133.808 130.213 137.967 130.213 141.533V164.115C130.213 167.68 127.836 170.057 124.27 170.057Z" fill="black"/>
</svg>
