<svg width="200" height="200" viewBox="0 0 200 200" fill="none" xmlns="http://www.w3.org/2000/svg">
<rect width="200" height="200" rx="32" fill="#F2F2F2"/>
<path d="M99.8395 32.9521C124.188 32.9521 144.359 51.6907 146.256 75.7823C147.373 77.4489 148.366 79.6532 149.164 82.0734L149.304 82.5053L149.44 82.9413C149.462 83.0145 149.484 83.0876 149.506 83.1609L149.635 83.6024L149.76 84.0471C149.78 84.1214 149.8 84.1958 149.82 84.2705L149.938 84.7191C149.977 84.869 150.015 85.0193 150.052 85.1698L150.161 85.6223C150.178 85.6979 150.196 85.7735 150.213 85.849L150.315 86.3033C150.397 86.6816 150.474 87.061 150.547 87.4414L150.631 87.8965L150.709 88.3509C150.722 88.4265 150.735 88.5023 150.747 88.5778L150.818 89.0304L150.883 89.4812C150.893 89.5563 150.904 89.6313 150.914 89.7061L150.971 90.1538C151.007 90.4513 151.039 90.7472 151.068 91.0406L151.107 91.4791C151.144 91.9122 151.172 92.3399 151.191 92.7598C155.423 96.7536 158.973 102.47 161.224 109.006C163.68 116.135 162.907 124.017 159.63 131.085C157.496 135.69 154.418 139.638 150.997 142.157C152.456 146.805 152.423 151.445 150.715 155.679C145.085 169.638 124.154 173.181 104.148 165.085C102.832 164.552 101.534 163.975 100.258 163.353L100.048 163.453L99.8039 163.568L99.3068 163.799L98.8018 164.03L98.2918 164.26L97.7799 164.486L97.2689 164.709L96.7619 164.926C96.5098 165.033 96.2602 165.138 96.0149 165.239L95.5304 165.437C75.5247 173.534 54.5939 169.99 48.9635 156.031C47.0332 151.246 47.244 145.959 49.3115 140.732C45.9313 138.355 42.8859 134.709 40.7785 130.448C37.4652 123.75 36.698 116.153 39.1602 109.006C41.5356 102.111 45.3543 96.1344 49.8814 92.1309C49.9524 89.3357 50.166 86.7125 50.5606 84.3505C51.111 81.0559 51.9724 78.3764 53.3834 76.3473L53.3601 76.696C54.8087 52.1903 75.1619 32.9521 99.8395 32.9521ZM99.8395 42.1164C80.2221 42.1164 64.0054 57.2592 62.5547 76.6475L62.5153 77.2363C62.5099 77.3267 62.5021 77.4166 62.4915 77.5055C62.6579 78.9124 62.1711 80.3767 61.0502 81.4121L61.0252 81.4388L60.9895 81.4834L60.9442 81.5466L60.8904 81.6284C60.8808 81.6438 60.8708 81.6597 60.8605 81.6766C60.7212 81.906 60.5746 82.2123 60.43 82.5896C60.1067 83.4327 59.827 84.5398 59.6065 85.8595C59.2076 88.2476 59.027 91.1484 59.0254 94.2927C59.0261 94.3746 59.0245 94.4561 59.0208 94.5376C58.9926 95.1903 58.8243 95.8294 58.5273 96.4114C58.2468 96.9632 57.8568 97.452 57.3811 97.848C57.3015 97.9146 57.2198 97.9784 57.1358 98.0395L57.1592 98.0219C53.4263 100.769 49.9473 105.848 47.832 111.988C46.2097 116.698 46.7235 121.785 49.0001 126.387C50.9435 130.316 53.9709 133.343 56.4731 134.267L56.5938 134.309C57.3222 134.559 57.9757 134.988 58.4936 135.558C60.0004 136.996 60.3773 139.329 59.2729 141.199C56.76 145.454 56.1849 149.42 57.4697 152.606C60.7633 160.771 76.1801 163.381 92.0877 156.943L92.5129 156.769C92.585 156.739 92.6572 156.709 92.73 156.679L93.1706 156.494L93.618 156.302L94.0688 156.106L94.52 155.906L94.9689 155.704L95.412 155.502L95.8468 155.301L96.27 155.101L96.6786 154.905L97.0696 154.713L97.44 154.528C97.4998 154.497 97.5588 154.467 97.6166 154.437L97.9504 154.264C98.0038 154.235 98.056 154.208 98.1069 154.18C99.6751 153.337 101.516 153.499 102.888 154.444C103.037 154.502 103.186 154.568 103.332 154.643C104.722 155.355 106.143 156.005 107.591 156.591C123.499 163.029 138.916 160.419 142.209 152.253C143.354 149.414 143.026 145.968 141.152 142.215C141.101 142.117 141.055 142.018 141.012 141.917C140.808 141.44 140.687 140.931 140.655 140.413C140.611 139.721 140.726 139.028 140.99 138.386C141.231 137.797 141.593 137.264 142.052 136.823L142.076 136.8C142.094 136.783 142.112 136.766 142.13 136.749L142.15 136.731C142.548 136.37 143.007 136.082 143.506 135.88C143.595 135.844 143.684 135.811 143.774 135.781L143.74 135.793C146.13 134.97 149.274 131.623 151.309 127.234C153.646 122.192 154.183 116.721 152.552 111.988C150.629 106.405 147.575 101.685 144.193 98.7925L144.027 98.6518C143.18 97.9469 142.617 96.9594 142.441 95.8716C142.182 95.2867 142.048 94.6537 142.049 94.0138C142.049 93.7099 142.04 93.3947 142.023 93.0709L142.003 92.7439L141.978 92.4118C141.973 92.356 141.969 92.2998 141.964 92.2437L141.931 91.9044L141.893 91.561C141.887 91.5033 141.88 91.4457 141.873 91.3877L141.828 91.0392L141.804 90.8638L141.753 90.5112L141.697 90.1564L141.637 89.8003L141.574 89.443C141.563 89.3834 141.552 89.3238 141.541 89.2643L141.472 88.9066L141.399 88.5493L141.323 88.1925L141.284 88.0147L141.203 87.6605L141.119 87.3082L141.032 86.9585C141.017 86.9005 141.003 86.8426 140.988 86.7848L140.897 86.4401L140.804 86.0993L140.709 85.7629C140.693 85.7072 140.677 85.6517 140.661 85.5965L140.562 85.2678L140.462 84.9448L140.36 84.628L140.257 84.318L140.152 84.0152L140.046 83.7203C140.028 83.6719 140.01 83.6238 139.992 83.5759L139.884 83.2938C139.848 83.2012 139.812 83.1101 139.776 83.0206L139.667 82.757C139.58 82.5506 139.488 82.3462 139.392 82.1438L139.282 81.9179C139.006 81.3681 138.731 80.9302 138.468 80.6407L138.415 80.5848C137.429 79.569 137.007 78.2138 137.146 76.9082L137.141 76.8622L137.132 76.7529C135.731 57.2962 119.475 42.1163 99.8395 42.1163V42.1164Z" fill="#948EDD"/>
</svg>
