<svg width="200" height="200" viewBox="0 0 200 200" fill="none" xmlns="http://www.w3.org/2000/svg">
<rect width="200" height="200" rx="32" fill="#F2F2F2"/>
<path d="M43.3071 155.571C41.0643 155.571 39.9428 155.571 37.7 153.329C33.2143 149.964 34.3357 142.114 36.5785 133.143C37.7 130.9 38.8214 126.414 38.8214 124.171C32.0928 114.079 27.6071 102.864 27.6071 91.65C27.6071 59.1286 60.1285 32.2143 100.5 32.2143C140.871 32.2143 173.393 59.1286 173.393 92.7714C173.393 126.414 140.871 153.329 100.5 153.329C89.2857 153.329 78.0714 151.086 66.8571 146.6C65.7357 146.6 60.1285 148.843 56.7643 151.086C52.2785 153.329 47.7928 155.571 43.3071 155.571ZM100.5 43.4286C66.8571 43.4286 38.8214 65.8571 38.8214 92.7714C38.8214 101.743 42.1857 110.714 47.7928 118.564C51.1571 123.05 48.9143 128.657 47.7928 136.507C47.7928 138.75 46.6714 140.993 46.6714 143.236L53.4 139.871C61.25 136.507 66.8571 133.143 72.4643 135.386C81.4357 138.75 91.5285 140.993 101.621 140.993C135.264 140.993 163.3 118.564 163.3 91.65C163.3 64.7357 134.143 43.4286 100.5 43.4286Z" fill="#3A8F24"/>
<path d="M115.079 84.9214C115.078 85.6578 115.223 86.3871 115.505 87.0675C115.787 87.7479 116.2 88.3661 116.721 88.8869C117.241 89.4076 117.859 89.8207 118.54 90.1026C119.22 90.3844 119.949 90.5295 120.686 90.5295C121.422 90.5295 122.151 90.3844 122.832 90.1026C123.512 89.8207 124.13 89.4076 124.651 88.8869C125.172 88.3661 125.585 87.7479 125.866 87.0675C126.148 86.3871 126.293 85.6578 126.293 84.9214C126.293 84.185 126.148 83.4558 125.866 82.7754C125.585 82.095 125.172 81.4767 124.651 80.956C124.13 80.4352 123.512 80.0221 122.832 79.7403C122.151 79.4584 121.422 79.3134 120.686 79.3134C119.949 79.3134 119.22 79.4584 118.54 79.7403C117.859 80.0221 117.241 80.4352 116.721 80.956C116.2 81.4767 115.787 82.095 115.505 82.7754C115.223 83.4558 115.078 84.185 115.079 84.9214Z" fill="#3A8F24"/>
<path d="M74.7072 84.9214C74.707 85.6578 74.852 86.3871 75.1337 87.0675C75.4154 87.7479 75.8284 88.3661 76.3491 88.8869C76.8698 89.4076 77.488 89.8207 78.1683 90.1026C78.8487 90.3844 79.5779 90.5295 80.3143 90.5295C81.0507 90.5295 81.7799 90.3844 82.4603 90.1026C83.1406 89.8207 83.7588 89.4076 84.2795 88.8869C84.8002 88.3661 85.2132 87.7479 85.4949 87.0675C85.7766 86.3871 85.9216 85.6578 85.9214 84.9214C85.9216 84.185 85.7766 83.4558 85.4949 82.7754C85.2132 82.095 84.8002 81.4767 84.2795 80.956C83.7588 80.4352 83.1406 80.0221 82.4603 79.7403C81.7799 79.4584 81.0507 79.3134 80.3143 79.3134C79.5779 79.3134 78.8487 79.4584 78.1683 79.7403C77.488 80.0221 76.8698 80.4352 76.3491 80.956C75.8284 81.4767 75.4154 82.095 75.1337 82.7754C74.852 83.4558 74.707 84.185 74.7072 84.9214Z" fill="#3A8F24"/>
</svg>
